<?xml version="1.0" encoding="utf-8"?>
<svg viewBox="0 0 119.66407 40" width="182" height="56" xmlns="http://www.w3.org/2000/svg">
  <g>
    <g>
      <g>
        <path d="M110.13477,0H9.53468c-.3667,0-.729,0-1.09473.002-.30615.002-.60986.00781-.91895.0127A13.21476,13.21476,0,0,0,5.5171.19141a6.66509,6.66509,0,0,0-1.90088.627A6.43779,6.43779,0,0,0,1.99757,1.99707,6.25844,6.25844,0,0,0,.81935,3.61816a6.60119,6.60119,0,0,0-.625,1.90332,12.993,12.993,0,0,0-.1792,2.002C.00587,7.83008.00489,8.1377,0,8.44434V31.5586c.00489.3105.00587.6113.01515.9219a12.99232,12.99232,0,0,0,.1792,2.0019,6.58756,6.58756,0,0,0,.625,1.9043A6.20778,6.20778,0,0,0,1.99757,38.001a6.27445,6.27445,0,0,0,1.61865,1.1787,6.70082,6.70082,0,0,0,1.90088.6308,13.45514,13.45514,0,0,0,2.0039.1768c.30909.0068.6128.0107.91895.0107C8.80567,40,9.168,40,9.53468,40H110.13477c.3594,0,.7246,0,1.084-.002.3047,0,.6172-.0039.9219-.0107a13.279,13.279,0,0,0,2-.1768,6.80432,6.80432,0,0,0,1.9082-.6308,6.27742,6.27742,0,0,0,1.6172-1.1787,6.39482,6.39482,0,0,0,1.1816-1.6143,6.60413,6.60413,0,0,0,.6191-1.9043,13.50643,13.50643,0,0,0,.1856-2.0019c.0039-.3106.0039-.6114.0039-.9219.0078-.3633.0078-.7246.0078-1.0938V9.53613c0-.36621,0-.72949-.0078-1.09179,0-.30664,0-.61426-.0039-.9209a13.5071,13.5071,0,0,0-.1856-2.002,6.6177,6.6177,0,0,0-.6191-1.90332,6.46619,6.46619,0,0,0-2.7988-2.7998,6.76754,6.76754,0,0,0-1.9082-.627,13.04394,13.04394,0,0,0-2-.17676c-.3047-.00488-.6172-.01074-.9219-.01269-.3594-.002-.7246-.002-1.084-.002Z" style="fill: #a6a6a6"/>
        <path d="M8.44483,39.125c-.30468,0-.602-.0039-.90429-.0107a12.68714,12.68714,0,0,1-1.86914-.1631,5.88381,5.88381,0,0,1-1.65674-.5479,5.40573,5.40573,0,0,1-1.397-1.0166,5.32082,5.32082,0,0,1-1.02051-1.3965,5.72186,5.72186,0,0,1-.543-1.6572,12.41351,12.41351,0,0,1-.1665-1.875c-.00634-.2109-.01464-.9131-.01464-.9131V8.44434S.88185,7.75293.8877,7.5498a12.37039,12.37039,0,0,1,.16553-1.87207,5.7555,5.7555,0,0,1,.54346-1.6621A5.37349,5.37349,0,0,1,2.61183,2.61768,5.56543,5.56543,0,0,1,4.01417,1.59521a5.82309,5.82309,0,0,1,1.65332-.54394A12.58589,12.58589,0,0,1,7.543.88721L8.44532.875H111.21387l.9131.0127a12.38493,12.38493,0,0,1,1.8584.16259,5.93833,5.93833,0,0,1,1.6709.54785,5.59374,5.59374,0,0,1,2.415,2.41993,5.76267,5.76267,0,0,1,.5352,1.64892,12.995,12.995,0,0,1,.1738,1.88721c.0029.2832.0029.5874.0029.89014.0079.375.0079.73193.0079,1.09179V30.4648c0,.3633,0,.7178-.0079,1.0752,0,.3252,0,.6231-.0039.9297a12.73126,12.73126,0,0,1-.1709,1.8535,5.739,5.739,0,0,1-.54,1.67,5.48029,5.48029,0,0,1-1.0156,1.3857,5.4129,5.4129,0,0,1-1.3994,1.0225,5.86168,5.86168,0,0,1-1.668.5498,12.54218,12.54218,0,0,1-1.8692.1631c-.2929.0068-.5996.0107-.8974.0107l-1.084.002Z"/>
      </g>
      <g id="_Group_" data-name="&lt;Group&gt;">
        <g id="_Group_2" data-name="&lt;Group&gt;">
          <g id="_Group_3" data-name="&lt;Group&gt;">
            <path id="_Path_" data-name="&lt;Path&gt;" d="M24.76888,20.30068a4.94881,4.94881,0,0,1,2.35656-4.15206,5.06566,5.06566,0,0,0-3.99116-2.15768c-1.67924-.17626-3.30719,1.00483-4.1629,1.00483-.87227,0-2.18977-.98733-3.6085-.95814a5.31529,5.31529,0,0,0-4.47292,2.72787c-1.934,3.34842-.49141,8.26947,1.3612,10.97608.9269,1.32535,2.01018,2.8058,3.42763,2.7533,1.38706-.05753,1.9051-.88448,3.5794-.88448,1.65876,0,2.14479.88448,3.591.8511,1.48838-.02416,2.42613-1.33124,3.32051-2.66914a10.962,10.962,0,0,0,1.51842-3.09251A4.78205,4.78205,0,0,1,24.76888,20.30068Z" style="fill: #fff"/>
            <path id="_Path_2" data-name="&lt;Path&gt;" d="M22.03725,12.21089a4.87248,4.87248,0,0,0,1.11452-3.49062,4.95746,4.95746,0,0,0-3.20758,1.65961,4.63634,4.63634,0,0,0-1.14371,3.36139A4.09905,4.09905,0,0,0,22.03725,12.21089Z" style="fill: #fff"/>
          </g>
        </g>
        <path d="M 48.196 19.103 L 48.196 16.422 L 54.348 16.422 L 54.348 21.916 Q 52.582 23.12 51.224 23.555 Q 49.866 23.99 48.003 23.99 Q 45.709 23.99 44.263 23.208 Q 42.817 22.425 42.022 20.878 Q 41.226 19.332 41.226 17.328 Q 41.226 15.218 42.096 13.658 Q 42.966 12.098 44.645 11.29 Q 45.955 10.666 48.17 10.666 Q 50.305 10.666 51.364 11.052 Q 52.423 11.439 53.122 12.252 Q 53.821 13.065 54.172 14.313 L 50.332 14.999 Q 50.094 14.269 49.527 13.882 Q 48.961 13.496 48.082 13.496 Q 46.772 13.496 45.994 14.405 Q 45.216 15.315 45.216 17.284 Q 45.216 19.375 46.003 20.272 Q 46.79 21.168 48.196 21.168 Q 48.864 21.168 49.47 20.975 Q 50.077 20.782 50.859 20.316 L 50.859 19.103 Z M 56.098 10.885 L 59.675 10.885 L 59.675 13.32 L 56.098 13.32 Z M 56.098 14.436 L 59.675 14.436 L 59.675 23.77 L 56.098 23.77 Z M 64.782 10.885 L 64.782 14.436 L 66.751 14.436 L 66.751 17.046 L 64.782 17.046 L 64.782 20.36 Q 64.782 20.958 64.896 21.151 Q 65.072 21.45 65.512 21.45 Q 65.907 21.45 66.619 21.221 L 66.883 23.691 Q 65.556 23.981 64.404 23.981 Q 63.068 23.981 62.435 23.638 Q 61.803 23.295 61.499 22.597 Q 61.196 21.898 61.196 20.333 L 61.196 17.046 L 59.878 17.046 L 59.878 14.436 L 61.196 14.436 L 61.196 12.722 Z M 66.222 10.885 L 70.203 10.885 L 70.203 15.394 L 74.554 15.394 L 74.554 10.885 L 78.553 10.885 L 78.553 23.77 L 74.554 23.77 L 74.554 18.558 L 70.203 18.558 L 70.203 23.77 L 66.222 23.77 Z M 89.287 23.77 L 85.947 23.77 L 85.947 22.258 Q 85.2 23.19 84.44 23.585 Q 83.68 23.981 82.572 23.981 Q 81.096 23.981 80.256 23.098 Q 79.417 22.214 79.417 20.377 L 79.417 14.436 L 83.012 14.436 L 83.012 19.569 Q 83.012 20.448 83.337 20.817 Q 83.662 21.186 84.251 21.186 Q 84.893 21.186 85.301 20.694 Q 85.71 20.202 85.71 18.927 L 85.71 14.436 L 89.287 14.436 Z M 89.986 10.885 L 93.598 10.885 L 93.598 15.35 Q 94.135 14.788 94.816 14.506 Q 95.497 14.225 96.323 14.225 Q 98.028 14.225 99.144 15.451 Q 100.261 16.677 100.261 18.971 Q 100.261 20.5 99.751 21.665 Q 99.241 22.83 98.34 23.405 Q 97.439 23.981 96.341 23.981 Q 95.4 23.981 94.618 23.577 Q 94.029 23.26 93.335 22.39 L 93.335 23.77 L 89.986 23.77 Z M 93.572 19.077 Q 93.572 20.281 94.025 20.821 Q 94.477 21.362 95.172 21.362 Q 95.813 21.362 96.248 20.83 Q 96.683 20.298 96.683 19.041 Q 96.683 17.934 96.257 17.416 Q 95.831 16.897 95.224 16.897 Q 94.495 16.897 94.034 17.437 Q 93.572 17.978 93.572 19.077 Z" transform="matrix(1, 0, 0, 1, -5.513223, 8.495787)" style="fill: rgb(255, 255, 255); white-space: pre;"/>
        <path transform="matrix(1, 0, 0, 1, -5.513223, 8.495787)" style="fill: rgb(255, 255, 255); white-space: pre;"/>
      </g>
    </g>
    <g id="_Group_4" data-name="&lt;Group&gt;">
      <g>
        <path d="M37.82619,8.731a2.63964,2.63964,0,0,1,2.80762,2.96484c0,1.90625-1.03027,3.002-2.80762,3.002H35.67092V8.731Zm-1.22852,5.123h1.125a1.87588,1.87588,0,0,0,1.96777-2.146,1.881,1.881,0,0,0-1.96777-2.13379h-1.125Z" style="fill: #fff"/>
        <path d="M41.68068,12.44434a2.13323,2.13323,0,1,1,4.24707,0,2.13358,2.13358,0,1,1-4.24707,0Zm3.333,0c0-.97607-.43848-1.54687-1.208-1.54687-.77246,0-1.207.5708-1.207,1.54688,0,.98389.43457,1.55029,1.207,1.55029C44.57522,13.99463,45.01369,13.42432,45.01369,12.44434Z" style="fill: #fff"/>
        <path d="M51.57326,14.69775h-.92187l-.93066-3.31641h-.07031l-.92676,3.31641h-.91309l-1.24121-4.50293h.90137l.80664,3.436h.06641l.92578-3.436h.85254l.92578,3.436h.07031l.80273-3.436h.88867Z" style="fill: #fff"/>
        <path d="M53.85354,10.19482H54.709v.71533h.06641a1.348,1.348,0,0,1,1.34375-.80225,1.46456,1.46456,0,0,1,1.55859,1.6748v2.915h-.88867V12.00586c0-.72363-.31445-1.0835-.97168-1.0835a1.03294,1.03294,0,0,0-1.0752,1.14111v2.63428h-.88867Z" style="fill: #fff"/>
        <path d="M59.09377,8.437h.88867v6.26074h-.88867Z" style="fill: #fff"/>
        <path d="M61.21779,12.44434a2.13346,2.13346,0,1,1,4.24756,0,2.1338,2.1338,0,1,1-4.24756,0Zm3.333,0c0-.97607-.43848-1.54687-1.208-1.54687-.77246,0-1.207.5708-1.207,1.54688,0,.98389.43457,1.55029,1.207,1.55029C64.11232,13.99463,64.5508,13.42432,64.5508,12.44434Z" style="fill: #fff"/>
        <path d="M66.4009,13.42432c0-.81055.60352-1.27783,1.6748-1.34424l1.21973-.07031v-.38867c0-.47559-.31445-.74414-.92187-.74414-.49609,0-.83984.18213-.93848.50049h-.86035c.09082-.77344.81836-1.26953,1.83984-1.26953,1.12891,0,1.76563.562,1.76563,1.51318v3.07666h-.85547v-.63281h-.07031a1.515,1.515,0,0,1-1.35254.707A1.36026,1.36026,0,0,1,66.4009,13.42432Zm2.89453-.38477v-.37646l-1.09961.07031c-.62012.0415-.90137.25244-.90137.64941,0,.40527.35156.64111.835.64111A1.0615,1.0615,0,0,0,69.29543,13.03955Z" style="fill: #fff"/>
        <path d="M71.34816,12.44434c0-1.42285.73145-2.32422,1.86914-2.32422a1.484,1.484,0,0,1,1.38086.79h.06641V8.437h.88867v6.26074h-.85156v-.71143h-.07031a1.56284,1.56284,0,0,1-1.41406.78564C72.0718,14.772,71.34816,13.87061,71.34816,12.44434Zm.918,0c0,.95508.4502,1.52979,1.20313,1.52979.749,0,1.21191-.583,1.21191-1.52588,0-.93848-.46777-1.52979-1.21191-1.52979C72.72121,10.91846,72.26613,11.49707,72.26613,12.44434Z" style="fill: #fff"/>
        <path d="M79.23,12.44434a2.13323,2.13323,0,1,1,4.24707,0,2.13358,2.13358,0,1,1-4.24707,0Zm3.333,0c0-.97607-.43848-1.54687-1.208-1.54687-.77246,0-1.207.5708-1.207,1.54688,0,.98389.43457,1.55029,1.207,1.55029C82.12453,13.99463,82.563,13.42432,82.563,12.44434Z" style="fill: #fff"/>
        <path d="M84.66945,10.19482h.85547v.71533h.06641a1.348,1.348,0,0,1,1.34375-.80225,1.46456,1.46456,0,0,1,1.55859,1.6748v2.915H87.605V12.00586c0-.72363-.31445-1.0835-.97168-1.0835a1.03294,1.03294,0,0,0-1.0752,1.14111v2.63428h-.88867Z" style="fill: #fff"/>
        <path d="M93.51516,9.07373v1.1416h.97559v.74854h-.97559V13.2793c0,.47168.19434.67822.63672.67822a2.96657,2.96657,0,0,0,.33887-.02051v.74023a2.9155,2.9155,0,0,1-.4834.04541c-.98828,0-1.38184-.34766-1.38184-1.21582v-2.543h-.71484v-.74854h.71484V9.07373Z" style="fill: #fff"/>
        <path d="M95.70461,8.437h.88086v2.48145h.07031a1.3856,1.3856,0,0,1,1.373-.80664,1.48339,1.48339,0,0,1,1.55078,1.67871v2.90723H98.69v-2.688c0-.71924-.335-1.0835-.96289-1.0835a1.05194,1.05194,0,0,0-1.13379,1.1416v2.62988h-.88867Z" style="fill: #fff"/>
        <path d="M104.76125,13.48193a1.828,1.828,0,0,1-1.95117,1.30273A2.04531,2.04531,0,0,1,100.73,12.46045a2.07685,2.07685,0,0,1,2.07617-2.35254c1.25293,0,2.00879.856,2.00879,2.27V12.688h-3.17969v.0498a1.1902,1.1902,0,0,0,1.19922,1.29,1.07934,1.07934,0,0,0,1.07129-.5459Zm-3.126-1.45117h2.27441a1.08647,1.08647,0,0,0-1.1084-1.1665A1.15162,1.15162,0,0,0,101.63527,12.03076Z" style="fill: #fff"/>
      </g>
    </g>
  </g>
</svg>
